<svg xmlns="http://www.w3.org/2000/svg" viewBox="0 0 72 72">
  <path fill="#e27022" d="M44.96 34.02c2.5-1.04.23-3.95.23-3.95 5-7 4.97-10.12 4-14-1-4-5-6-5-6s9 2 13 7c2.88 3.6 1.61 8.24.68 10.55-.3.74-.68 1.43-1.13 2.1-.8 1.17-1.88 3.35-1.55 4.35.5 1.5 4 2 8-3 0 0-3.46 7.46-6.5 10.5-3 3-5.5 4.5-5.5 4.5s1.5 2.5 5.5.5c0 0-5 6-9 7 0 0-2 1-5 0 0 0-1.06 8.28-5.06 10.28 0 0 2.94-7.46-.45-14.18-.54-1.07-1.5-1.05-2.07 0-2.54 4.74-.48 14.18-.48 14.18-4-2-5.06-10.46-5.06-10.46-3 1-5 0-5 0-4-1-9-7-9-7 4 2 5.5-.5 5.5-.5s-2.5-1.5-5.5-4.5c-3.05-3.04-6.5-10.5-6.5-10.5 4 5 7.5 4.5 8 3 .33-1-.75-3.19-1.55-4.36-.45-.66-.83-1.35-1.13-2.1-.94-2.3-2.2-6.94.68-10.54 4-5 13-7 13-7s-4 2-5 6c-.97 3.88-1 7 4 14 0 0-2.75 5.49 2.27 5.96a2.6 2.6 0 0 0 2.01-.61c.74-.69 1.33-2.07.22-4.85-2-5 3-7 1-8s-2.71-3.71-2-3c1 1 7 0 9 1s4.78 5.9 3 5c-2.02-1-3.02-1-4.02.02-1.36 1.37-1.24 3.72.13 5.09l2.7 2.71a3.32 3.32 0 0 0 3.58.81Z"/>
  <path fill="#d22f27" d="M41.39 33.21s1.74 1.66 1.74 4.66-3 6-5 7-3 1-2-1 3-3 2-5-7.56-2.26-6.78-3.63c.5-.88 1.33-2.07.22-4.85-2-5 3-7 1-8s-2.71-3.71-2-3c1 1 7 0 9 1s4.78 5.9 3 5c-2.02-1-3.02-1-4.02.02-1.36 1.37-1.24 3.72.13 5.09l2.7 2.71"/>
  <path fill="none" stroke="#000" stroke-linecap="round" stroke-linejoin="round" stroke-width="2" d="M21.07 45.89s-2.5-1.5-5.5-4.5c-2.8-2.8-5.95-9.32-6.44-10.36m20.44 22.36c-3 1-5 0-5 0-4-1-9-7-9-7m22.06 17.46s2.94-7.46-.45-14.18c-.54-1.07-1.5-1.05-2.07 0-2.54 4.73-.48 14.18-.48 14.18M56.7 46.57s-5 6-9 7c0 0-2 1-5 0m20.5-22.5s-3.47 7.46-6.5 10.5c-3 3-5.5 4.5-5.5 4.5m-7-36s9 2 13 7c2.87 3.6 1.6 8.24.67 10.55-.3.74-.68 1.43-1.13 2.1-.8 1.17-1.88 3.35-1.55 4.35M32.57 22.39c-2-1-2.71-3.71-2-3 1 1 7 0 9 1s4.78 5.9 3 5c-2.02-1-3.02-1-4.02.02-1.36 1.37-1.24 3.72.13 5.09l3.45 3.37m-25.06.02c.33-1-.75-3.19-1.55-4.36-.45-.66-.83-1.35-1.13-2.1-.94-2.3-2.2-6.94.68-10.54 4-5 13-7 13-7"/>
</svg>
